<svg width="23" height="17" viewBox="0 0 23 17" fill="none" xmlns="http://www.w3.org/2000/svg">
<path d="M22.5643 5.61354C22.7395 5.4763 23 5.60469 23 5.82161V14.875C23 16.0482 22.0342 17 20.8438 17H2.15625C0.96582 17 0 16.0482 0 14.875V5.82604C0 5.60469 0.256055 5.48073 0.435742 5.61797C1.44199 6.38828 2.77617 7.36667 7.3582 10.6471C8.30606 11.3289 9.90527 12.7633 11.5 12.7544C13.1037 12.7677 14.7344 11.3023 15.6463 10.6471C20.2283 7.36667 21.558 6.38385 22.5643 5.61354ZM11.5 11.3333C12.5422 11.351 14.0426 10.0406 14.7973 9.50052C20.7584 5.23724 21.2121 4.86536 22.5867 3.80286C22.8473 3.60365 23 3.29375 23 2.96615V2.125C23 0.951823 22.0342 0 20.8438 0H2.15625C0.96582 0 0 0.951823 0 2.125V2.96615C0 3.29375 0.152734 3.59922 0.413281 3.80286C1.78789 4.86094 2.2416 5.23724 8.20273 9.50052C8.95742 10.0406 10.4578 11.351 11.5 11.3333Z" fill="#CFD8DC"/>
</svg>
