<?xml version="1.0" encoding="UTF-8" standalone="no"?>
<svg
   xmlns:dc="http://purl.org/dc/elements/1.1/"
   xmlns:cc="http://creativecommons.org/ns#"
   xmlns:rdf="http://www.w3.org/1999/02/22-rdf-syntax-ns#"
   xmlns:svg="http://www.w3.org/2000/svg"
   xmlns="http://www.w3.org/2000/svg"
   version="1.1"
   id="svg2"
   viewBox="0 0 425.91937 102.96"
   height="29.0576mm"
   width="120.20391mm">
  <defs
     id="defs4" />
  <metadata
     id="metadata7">
    <rdf:RDF>
      <cc:Work
         rdf:about="">
        <dc:format>image/svg+xml</dc:format>
        <dc:type
           rdf:resource="http://purl.org/dc/dcmitype/StillImage" />
        <dc:title></dc:title>
      </cc:Work>
    </rdf:RDF>
  </metadata>
  <g
     transform="translate(-156.11342,-58.942183)"
     id="layer1">
    <g
       id="text3336"
       style="font-style:normal;font-weight:normal;line-height:0%;font-family:sans-serif;letter-spacing:0px;word-spacing:0px;fill:#000000;fill-opacity:1;stroke:none;stroke-width:1px;stroke-linecap:butt;stroke-linejoin:miter;stroke-opacity:1"
       aria-label="koena">
      <path
         id="path36"
         style="font-style:normal;font-variant:normal;font-weight:normal;font-stretch:normal;font-family:Wattauchimma;-inkscape-font-specification:Wattauchimma;fill:#16380a;fill-opacity:1"
         d="m 223.61342,87.922183 -20.7,23.039997 29.7,50.4 h -23.4 l -20.52,-34.74 -11.34,12.96 v 21.78 h -21.24 V 58.942183 h 21.24 v 55.619997 l 23.94,-26.639997 z" />
      <path
         id="path38"
         style="font-style:normal;font-variant:normal;font-weight:normal;font-stretch:normal;font-family:Wattauchimma;-inkscape-font-specification:Wattauchimma;fill:#3e8526;fill-opacity:1"
         d="m 279.17155,161.90218 q -9.72,0 -16.92,-3.42 -7.02,-3.42 -11.7,-8.82 -4.5,-5.4 -6.84,-11.88 -2.16,-6.48 -2.16,-12.6 0,-6.12 2.16,-12.6 2.34,-6.66 7.02,-12.24 4.68,-5.579997 11.7,-8.999997 7.02,-3.6 16.74,-3.42 9.72,-0.18 16.74,3.42 7.02,3.42 11.7,8.999997 4.68,5.58 6.84,12.24 2.34,6.48 2.34,12.6 0,6.12 -2.34,12.6 -2.16,6.48 -6.84,11.88 -4.5,5.4 -11.7,8.82 -7.02,3.42 -16.74,3.42 z m 0,-21.06 q 3.78,0 6.66,-1.44 3.06,-1.44 5.04,-3.78 2.16,-2.34 3.06,-5.22 1.08,-2.88 1.08,-5.58 0,-2.7 -1.08,-5.4 -1.08,-2.88 -3.06,-5.04 -1.98,-2.34 -5.04,-3.78 -2.88,-1.62 -6.66,-1.62 -3.78,0 -6.84,1.62 -2.88,1.44 -4.86,3.78 -1.98,2.16 -3.06,5.04 -1.08,2.7 -1.08,5.4 0,2.7 0.9,5.58 1.08,2.88 3.06,5.22 2.16,2.34 5.04,3.78 3.06,1.44 6.84,1.44 z" />
      <path
         id="path40"
         style="font-style:normal;font-variant:normal;font-weight:normal;font-stretch:normal;font-family:Wattauchimma;-inkscape-font-specification:Wattauchimma;fill:#3e8526;fill-opacity:1"
         d="m 404.8453,140.84218 v 21.06 h -37.08 q -9.72,0 -16.92,-3.42 -7.02,-3.42 -11.7,-8.82 -4.5,-5.4 -6.84,-11.88 -2.16,-6.48 -2.16,-12.6 0,-6.12 2.16,-12.6 2.34,-6.66 7.02,-12.24 4.68,-5.579997 11.7,-8.999997 7.02,-3.6 16.74,-3.42 h 37.08 l -20.52,52.919997 z m -28.98,-31.86 h -8.1 q -3.78,0 -6.84,1.62 -2.88,1.44 -4.86,3.78 -1.98,2.16 -3.06,5.04 -1.08,2.7 -1.08,5.4 0,4.86 3.06,9.54 3.06,4.68 8.82,6.12 z" />
      <path
         id="path42"
         style="font-style:normal;font-variant:normal;font-weight:normal;font-stretch:normal;font-family:Wattauchimma;-inkscape-font-specification:Wattauchimma;fill:#3e8526;fill-opacity:1"
         d="m 418.37905,161.36218 v -37.08 q 0,-9.72 3.6,-16.74 3.6,-7.2 9,-11.699997 5.58,-4.68 12.06,-6.84 6.66,-2.34 12.78,-2.34 6.12,0 12.78,2.34 6.84,2.16 12.42,6.84 5.58,4.679997 9.18,11.699997 3.78,7.02 3.6,16.74 v 37.08 h -21.06 v -37.08 q 0,-3.78 -1.62,-6.66 -1.62,-3.06 -4.14,-5.04 -2.34,-1.98 -5.22,-3.06 -2.88,-1.08 -5.58,-1.08 -2.7,0 -5.76,1.08 -2.88,0.9 -5.4,3.06 -2.34,1.98 -3.96,5.04 -1.62,2.88 -1.62,6.66 v 37.08 z" />
      <path
         id="path44"
         style="font-style:normal;font-variant:normal;font-weight:normal;font-stretch:normal;font-family:Wattauchimma;-inkscape-font-specification:Wattauchimma;fill:#3e8526;fill-opacity:1"
         d="m 582.0328,161.90218 h -37.08 q -9.72,0 -16.92,-3.42 -7.02,-3.42 -11.7,-8.82 -4.5,-5.4 -6.84,-11.88 -2.16,-6.48 -2.16,-12.6 0,-6.12 2.16,-12.6 2.34,-6.66 7.02,-12.24 4.68,-5.579997 11.7,-8.999997 7.02,-3.6 16.74,-3.42 h 37.08 z m -52.92,-37.08 q 0,2.7 0.9,5.58 1.08,2.88 3.06,5.22 2.16,2.34 5.04,3.78 3.06,1.44 6.84,1.44 h 16.38 v -31.86 h -16.38 q -3.78,0 -6.84,1.62 -2.88,1.44 -4.86,3.78 -1.98,2.16 -3.06,5.04 -1.08,2.7 -1.08,5.4 z" />
    </g>
  </g>
</svg>
